<?xml version="1.0" encoding="utf-8"?>
<!-- Generator: Adobe Illustrator 21.1.0, SVG Export Plug-In . SVG Version: 6.00 Build 0)  -->
<svg version="1.1" id="Layer_1" xmlns="http://www.w3.org/2000/svg" xmlns:xlink="http://www.w3.org/1999/xlink" x="0px" y="0px"
	 viewBox="0 0 54.2 34.3" style="enable-background:new 0 0 54.2 34.3;" xml:space="preserve">
<style type="text/css">
	.st0{fill:none;stroke:#D8D8D8;stroke-width:4;stroke-linecap:square;stroke-miterlimit:10;}
	.st1{fill:none;stroke:#D8D8D8;stroke-width:2;stroke-linecap:square;stroke-miterlimit:10;}
</style>
<g>
	<g>
		<path class="st0" d="M2,2v28.3c0,1.1,0.9,2,2,2h46.2c1.1,0,2-0.9,2-2V2"/>
	</g>
	<g>
		<path class="st1" d="M45.4,5.6l-1.8,1.8c-0.8,0.8-2.1,0.8-2.8,0l-2.3-2.3c-0.8-0.8-2.1-0.8-2.8,0l-2.3,2.3c-0.8,0.8-2.1,0.8-2.8,0
			l-2.3-2.3c-0.8-0.8-2.1-0.8-2.8,0L23,7.4c-0.8,0.8-2.1,0.8-2.8,0l-2.3-2.3c-0.8-0.8-2.1-0.8-2.8,0l-2.3,2.3
			c-0.8,0.8-2.1,0.8-2.8,0L7.8,5.3"/>
	</g>
	<g>
		<path class="st1" d="M24.4,21.9c2.7,0,5.2-1.2,6.9-3.1c-1.7-1.9-4.2-3.1-6.9-3.1c-2.7,0-5.2,1.2-6.9,3.1
			C19.2,20.7,21.6,21.9,24.4,21.9z"/>
		<polygon class="st1" points="35.2,22.7 31.2,18.8 35.2,14.8 		"/>
	</g>
</g>
</svg>
