<?xml version="1.0" encoding="utf-8"?>
<!-- Generator: Adobe Illustrator 21.1.0, SVG Export Plug-In . SVG Version: 6.00 Build 0)  -->
<svg version="1.1" id="Layer_1" xmlns="http://www.w3.org/2000/svg" xmlns:xlink="http://www.w3.org/1999/xlink" x="0px" y="0px"
	 viewBox="0 0 69 53.5" style="enable-background:new 0 0 69 53.5;" xml:space="preserve">
<style type="text/css">
	.st0{fill:none;stroke:#D8D8D8;stroke-width:2;stroke-linecap:square;stroke-miterlimit:10;}
	.st1{fill:none;stroke:#D8D8D8;stroke-width:3;stroke-linecap:square;stroke-miterlimit:10;}
	.st2{fill:none;stroke:#D8D8D8;stroke-width:4;stroke-linecap:square;stroke-miterlimit:10;}
	.st3{fill:#FFFFFF;stroke:#D8D8D8;stroke-miterlimit:10;}
</style>
<g>
	<g>
		<line class="st0" x1="41" y1="14.5" x2="41" y2="48.1"/>
	</g>
	<g>
		<line class="st0" x1="3.5" y1="14.3" x2="66.5" y2="14.3"/>
	</g>
	<g>
		<line class="st0" x1="20" y1="1" x2="7.1" y2="1"/>
	</g>
	<g>
		<line class="st0" x1="41" y1="1" x2="28.1" y2="1"/>
	</g>
	<g>
		<line class="st0" x1="62" y1="1" x2="49.1" y2="1"/>
	</g>
	<g>
		<line class="st1" x1="11.3" y1="52" x2="5.1" y2="52"/>
	</g>
	<g>
		<line class="st1" x1="64.3" y1="52" x2="58.1" y2="52"/>
	</g>
	<g>
		<path class="st2" d="M67,47c0,1.1-0.9,2-2,2H4c-1.1,0-2-0.9-2-2V6c0-1.1,0.9-2,2-2h61c1.1,0,2,0.9,2,2V47z"/>
	</g>
	<g>
		<path class="st0" d="M34,36.5c0,1.1-0.9,2-2,2H13c-1.1,0-2-0.9-2-2V24.5c0-1.1,0.9-2,2-2h19c1.1,0,2,0.9,2,2V36.5z"/>
	</g>
	<line class="st0" x1="24.6" y1="27.2" x2="17" y2="34.8"/>
	<line class="st0" x1="30" y1="27.2" x2="22.4" y2="34.8"/>
	<circle class="st3" cx="14.4" cy="9.6" r="1.6"/>
	<circle class="st3" cx="24.4" cy="9.6" r="1.6"/>
	<circle class="st3" cx="34.4" cy="9.6" r="1.6"/>
	<circle class="st3" cx="44.4" cy="9.6" r="1.6"/>
	<circle class="st3" cx="54.4" cy="9.6" r="1.6"/>
</g>
</svg>
