<?xml version="1.0" encoding="utf-8"?>
<!-- Generator: Adobe Illustrator 21.1.0, SVG Export Plug-In . SVG Version: 6.00 Build 0)  -->
<svg version="1.1" id="Слой_1" xmlns="http://www.w3.org/2000/svg" xmlns:xlink="http://www.w3.org/1999/xlink" x="0px" y="0px"
	 viewBox="0 0 160.2 157.1" style="enable-background:new 0 0 160.2 157.1;" xml:space="preserve">
<style type="text/css">
	.st0{fill:#0023FF;}
</style>
<g>
	<path class="st0" d="M75.1,0c4,0,8,0,12,0c1.3,0.4,2.5,0.9,3.8,1.1c33.5,4.1,60.3,28.7,67.2,61.8c0.7,3.4,1.4,6.8,2.1,10.2
		c0,4,0,8,0,12c-0.4,1.1-0.9,2.1-1.1,3.2c-4.3,32.6-27.6,58.5-59.3,66.2c-4.2,1-8.4,1.7-12.6,2.6c-4,0-8,0-12,0
		c-1.3-0.4-2.5-0.9-3.8-1.1C37.8,151.9,11,127.2,4.2,94.2c-0.6-3-1.4-6.1-2.1-9.1c0-4.3,0-8.7,0-13C2.5,71,3,70,3.2,68.9
		C7.5,36.6,30,11.2,61.6,3C66,1.8,70.6,1,75.1,0z M43.6,78.2C43.4,98.8,60,115.8,80.8,116c20.5,0.3,37.6-16.6,37.8-37.2
		c0.2-20.7-16.5-37.6-37.2-37.8C60.9,40.7,43.8,57.5,43.6,78.2z"/>
	<path class="st0" d="M150.9,154.1c-3.8-0.4-6-2.3-6.1-6c-0.1-3.3,3.7-7.2,6.7-6.7c3.4,0.6,5.9,2.5,5.6,6.4
		C156.8,151.7,154.7,153.8,150.9,154.1z"/>
</g>
</svg>
